<?xml version="1.0" encoding="utf-8"?>
<svg width="512" height="512" xmlns="http://www.w3.org/2000/svg">
  <g>
    <title>Layer 1</title>
    <rect id="svg_9" height="512" width="512" y="0" x="0" stroke-width="0.8" stroke="null" fill="url(#svg_13)"/>
    <text style="cursor: move; white-space: pre;" font-style="normal" stroke-width="0.8" font-weight="normal" transform="matrix(5.577422, 0, 0, 5.067638, -446.280304, -1358.809814)" stroke="null" text-anchor="start" font-family="monospace" font-size="24" id="svg_3" y="347.98802" x="92.21719" fill="#000000">cloud</text>
    <text font-style="normal" font-weight="normal" transform="matrix(8.55974 0 0 10.8675 -103.12 -396.093)" stroke="null" text-anchor="start" font-family="monospace" font-size="24" stroke-width="0" fill="#000000" id="svg_4" y="77.16976" x="12.2239" style="white-space: pre;">{</text>
    <text font-style="normal" font-weight="normal" transform="matrix(8.55974 0 0 10.8675 -103.12 -396.093)" stroke="null" text-anchor="start" font-family="monospace" font-size="24" stroke-width="0" fill="#000000" id="svg_7" y="77.26178" x="58.48671" style="white-space: pre;">}</text>
    <g stroke="null">
      <path stroke="null" d="m297.84564,185.6436c-8.70985,10.06217 -13.56902,28.41396 -7.20472,34.34277c6.05105,4.53065 22.40875,3.98055 34.465,-12.53759c8.79389,-11.02483 5.80657,-29.48359 0.83279,-34.38097c-7.43393,-5.64612 -18.09967,1.68085 -28.09307,12.70568l0,-0.12989zm-82.04826,3.02553c-9.26758,-10.5817 -21.29328,-16.87723 -29.05574,-12.2167c-5.21827,3.88887 -6.16565,17.18284 1.23007,30.23232c10.97899,15.52492 26.46571,17.11409 32.83001,13.33218c6.72338,-4.97378 3.06372,-21.81281 -5.01198,-31.35544l0.00764,0.00764zm41.81489,32.02778c-11.25404,-0.23685 -28.5362,4.50008 -28.29171,10.54349c-0.20629,4.1028 13.56902,16.00625 27.57353,15.40268c13.48498,0.31325 27.45129,-11.61313 27.29849,-16.78555c-0.03821,-5.34051 -15.24987,-9.43567 -26.54975,-8.99254l-0.03056,-0.16808zm-0.74874,-142.01631c-13.01129,-0.31325 -25.51068,9.50443 -25.51068,15.19639c-0.0382,6.92967 10.26845,14.00451 25.58708,14.2108c15.71592,0.06876 25.61764,-5.69196 25.78572,-12.85848c0.16045,-8.07571 -14.21079,-16.67859 -25.67112,-16.55635l-0.191,0.00764zm-31.31724,5.40927c-21.72877,-3.50685 -39.82844,9.16062 -39.1179,32.50912c0.71054,8.99253 47.15541,-30.95815 39.1561,-32.34103l-0.0382,-0.16809zm99.32279,33.10505c0.71054,-23.19569 -17.38913,-35.84788 -39.1561,-32.35631c-7.99931,1.39816 38.43792,41.38705 39.1561,32.35631zm3.69786,8.3966c-12.61399,-3.33877 -4.2556,51.45684 6.01285,47.03316c11.29988,-8.87029 14.92134,-35.13735 -6.01285,-46.87272l0,-0.16044zm-151.76522,47.63674c10.26081,4.57648 18.6192,-50.21913 5.99757,-46.87272c-20.88071,11.77357 -17.30509,37.99479 -5.99757,47.03316l0,-0.16044zm95.93817,-60.60219c-11.7048,7.64022 -13.8135,24.7543 -4.69873,38.16288c9.06894,13.44677 25.90797,18.45875 37.5593,10.97898c11.7048,-7.43392 13.8135,-24.548 4.73693,-38.16287c-9.11478,-13.56902 -25.94617,-18.45876 -37.5975,-10.81854l0,-0.16045zm-31.55408,1.39052c-11.66661,-7.48741 -28.5362,-2.59003 -37.56694,10.81855c-9.10713,13.60722 -6.99843,30.6831 4.69874,38.32331c11.6666,7.64022 28.49036,2.74284 37.61277,-10.82618c8.99253,-13.44678 6.84563,-30.56086 -4.73693,-38.16287l-0.00764,-0.15281zm44.48133,72.94113c-0.08405,-14.1726 -12.73624,-25.63292 -28.29172,-25.46483c-15.56311,0.1528 -28.13891,11.57492 -28.05486,25.78572l0,0.27505c0.08404,14.2108 12.77443,25.67112 28.32991,25.51067c15.55548,0 28.09307,-11.57492 27.93262,-25.61764l0,-0.32852l0.08405,-0.16045zm32.7154,-154.15661c-23.52423,12.0639 -37.20021,21.69057 -44.73346,29.91908c3.85831,15.28043 23.87567,15.88401 31.24084,15.40268c-1.52041,-0.5883 -2.78868,-1.50513 -3.23181,-2.697c1.83365,-1.24535 8.36603,-0.16044 12.93488,-2.62823c-1.74961,-0.28269 -2.59003,-0.60358 -3.38462,-1.9941c4.30144,-1.34468 8.91613,-2.42195 11.61313,-4.72929c-1.42872,0 -2.81924,0.31325 -4.72929,-0.91683c3.8201,-1.95589 7.91526,-3.6673 11.13179,-6.69283c-1.98646,0 -4.13336,0 -4.72929,-0.75638c3.49157,-2.1469 6.4407,-4.45424 8.91613,-7.20472c-2.75048,0.48133 -3.94235,0.20629 -4.62233,-0.27505c2.66643,-2.62823 6.05105,-4.89737 7.64021,-8.28199c-2.0705,0.79458 -3.97291,0.91683 -5.32523,0c0.95503,-1.94825 4.82098,-3.17833 7.03664,-7.91526c-2.17746,0.31325 -4.49245,0.48133 -4.97378,0c1.03907,-3.98055 2.75048,-6.24206 4.46189,-8.70985c-4.6529,0 -11.74301,0 -11.39156,-0.28268l2.87272,-2.90329c-4.54593,-1.23007 -9.19882,0.16045 -12.58344,1.23008c-1.50512,-1.06963 0,-2.62823 1.87186,-4.13336c-3.98056,0.63414 -7.44921,1.39816 -10.5053,2.62824c-1.67321,-1.55861 1.03143,-2.90328 2.42195,-4.46189c-6.08925,1.23008 -8.55704,2.75048 -11.14707,4.2556c-1.83366,-1.67321 -0.15281,-3.17833 1.07727,-4.53065c-4.58413,1.67321 -6.88384,3.78191 -9.31343,5.76837c-0.91682,-1.06963 -2.1469,-1.82602 -0.64177,-4.57649c-3.17833,1.83365 -5.65376,3.98055 -7.47977,6.41014c-1.9559,-1.35232 -1.19188,-3.06373 -1.19188,-4.57649c-3.38461,2.74284 -5.50095,5.49331 -8.0757,8.27435c-0.64178,-0.31325 -1.07727,-1.55096 -1.39816,-3.53742c-7.92291,7.64022 -19.26098,26.74075 -2.90328,34.17468c13.72182,-11.14707 30.35457,-19.37558 48.70636,-25.51067l0.4355,-0.74875zm-124.87167,0c18.30595,6.1351 34.81646,14.36361 48.67581,25.66348c16.22781,-7.64021 5.01198,-26.74075 -2.91093,-34.17467c-0.39729,1.94825 -0.83278,3.33877 -1.34467,3.65966c-2.59004,-2.74284 -4.69873,-5.53152 -8.03751,-8.27435c0,1.55096 0.79458,3.38461 -1.19951,4.57648c-1.78017,-2.42194 -4.1792,-4.57648 -7.35753,-6.41014c1.50512,2.62824 0.23685,3.38462 -0.60358,4.57649c-2.42194,-2.2615 -4.73693,-4.4084 -9.14533,-6.08161c1.23007,1.50512 3.05608,3.06373 1.23007,4.73694c-2.43723,-1.52041 -5.05018,-3.06373 -10.97899,-4.30145c1.34468,1.50513 4.09516,3.05609 2.42195,4.61469c-3.23181,-1.27591 -6.72339,-2.19274 -10.54349,-2.66643c1.82601,1.55096 3.46101,2.94148 1.94825,4.13336c-3.50686,-1.23008 -8.19795,-2.59004 -12.77444,-1.34468l2.86508,2.86508c0.32853,0.39729 -6.68519,0.31325 -11.42212,0.35909c1.71141,2.31498 3.46102,4.57649 4.46189,8.70984c-0.48134,0.43549 -2.75048,0.16045 -4.92794,0c2.2997,4.58413 6.08161,5.81421 6.99844,7.80066c-1.35232,0.95503 -3.18597,0.75638 -5.32523,0c1.6732,3.18597 5.05018,5.49332 7.64021,8.24379c-0.76402,0.43549 -1.83365,0.75638 -4.73693,0.39729c2.42195,2.62824 5.32523,5.01198 8.87029,7.15888c-0.64178,0.71054 -2.78868,0.67234 -4.89738,0.75639c3.18597,3.10956 7.32696,4.73693 11.14707,6.76159c-1.98645,1.39815 -3.38461,1.07727 -4.73693,1.07727c2.59003,2.2615 7.32696,3.33877 11.62076,4.69873c-0.95502,1.38288 -1.6732,1.71141 -3.54505,1.98645c4.57648,2.59004 10.97898,1.39816 12.85848,2.74284c-0.48134,1.23008 -1.67321,2.1469 -3.21653,2.78868c7.31168,0.43549 27.49713,-0.16045 31.31724,-15.44087c-7.52562,-8.22852 -21.24744,-17.87047 -44.77166,-29.76628l0.42021,0.1528zm17.67182,-22.76019c2.38374,-0.03821 4.4084,1.38287 6.63934,2.07049c5.37107,-1.74961 6.60115,0.63414 9.22938,1.62737c5.89061,-1.23008 7.67842,1.42872 10.5053,4.2556l3.27001,-0.12224c8.87029,5.17242 13.28633,15.67772 14.84493,21.05643c1.55097,-5.37871 5.96701,-15.88401 14.84494,-21.05643l3.26237,0.08404c2.81924,-2.86508 4.61469,-5.49332 10.5053,-4.2556c2.66643,-1.07727 3.85831,-3.33878 9.28286,-1.67321c3.38461,-1.07727 6.3261,-3.82011 10.78034,-0.48133c3.73607,-1.50512 7.40337,-1.98646 10.62754,0.91682c5.05018,-0.60357 6.63935,0.63414 7.87706,2.1469c1.12311,0 8.24379,-1.07727 11.54436,3.65967c8.282,-0.91683 10.87203,4.73693 7.88471,10.06216c1.7114,2.59003 3.46101,5.06546 -0.48134,9.9552c1.50512,2.75048 0.5883,5.61556 -2.78868,9.26758c0.95503,3.82011 -0.75638,6.44834 -3.7819,8.55704c0.60357,5.21827 -4.88974,8.28199 -6.41014,9.31342c-0.63414,3.06373 -1.86421,5.96701 -8.10627,7.47977c-0.91683,4.58413 -4.73693,5.34051 -8.40424,6.25734c12.1021,6.87619 22.28651,15.86872 22.28651,37.99478l1.86421,3.06373c13.72947,8.24379 26.10662,34.65601 6.84563,56.19378c-1.19187,6.68518 -3.33877,11.42212 -5.20298,16.74735c-2.75048,21.52248 -21.20924,31.59992 -26.06841,32.83c-7.03664,5.32523 -14.64629,10.38305 -24.8689,13.88227c-9.63431,9.78711 -20.13961,13.60722 -30.5303,13.60722l-0.90918,0c-10.5435,0 -21.05643,-3.82011 -30.6831,-13.60722c-10.26845,-3.50686 -17.90867,-8.51884 -24.9453,-13.88227c-4.89738,-1.19188 -23.24918,-11.26932 -26.10662,-32.7918c-1.90241,-5.32523 -4.01111,-10.23025 -5.24882,-16.95364c-19.30683,-21.52248 -6.96788,-47.91178 6.76158,-56.19378l1.74961,-3.02552c0,-22.11842 10.21497,-31.14916 22.27887,-37.99479c-3.65966,-0.91682 -7.32697,-1.67321 -8.35076,-6.28789c-6.28789,-1.52041 -7.52561,-4.42369 -8.12154,-7.48741c-1.52041,-1.03143 -7.00608,-4.09516 -6.41014,-9.42039c-3.06373,-2.1469 -4.73694,-4.73693 -3.82011,-8.71748c-3.18597,-3.50686 -4.09516,-6.56295 -2.75048,-9.31343c-3.97291,-4.88973 -2.1469,-7.47977 -0.46605,-9.90935c-2.91092,-5.37107 -0.28269,-11.1318 7.95346,-10.21497c3.17833,-4.73693 10.38305,-3.6673 11.42212,-3.6673c1.23008,-1.55097 2.90328,-2.90328 7.95347,-2.29971c3.18597,-2.91092 6.88383,-2.43723 10.66574,-1.03907c1.55096,-1.23007 2.90328,-1.6732 4.13335,-1.6732l-0.55773,1.03907z"/>
    </g>
  </g>
  <defs>
    <linearGradient y2="1" x2="1" y1="0" x1="0" id="svg_13">
      <stop offset="0.0195" stop-opacity="0.99219" stop-color="#8384d4"/>
      <stop offset="1" stop-opacity="0.99219" stop-color="#b6fbff"/>
    </linearGradient>
  </defs>
</svg>